<svg xmlns="http://www.w3.org/2000/svg" viewBox="0 0 32 32" fill="none">
  <!-- Background circle -->
  <circle cx="16" cy="16" r="16" fill="#667eea"/>
  
  <!-- Musical note -->
  <path d="M12 24c-1.5 0-2.7-1.2-2.7-2.7s1.2-2.7 2.7-2.7c1.5 0 2.7 1.2 2.7 2.7S13.5 24 12 24z" fill="white"/>
  <path d="M20 20c-1.5 0-2.7-1.2-2.7-2.7s1.2-2.7 2.7-2.7c1.5 0 2.7 1.2 2.7 2.7S21.5 20 20 20z" fill="white"/>
  <rect x="14.5" y="8" width="1.5" height="13" fill="white"/>
  <rect x="22.5" y="6" width="1.5" height="11" fill="white"/>
  <path d="M14.5 8 L24 6 L24 8 L16 10 Z" fill="white"/>
</svg>